{"accessors":[{"bufferView":2,"componentType":5126,"count":1209,"max":[17.541467666625977,13.138712882995605,24.73613929748535],"min":[-29.005714416503906,-14.14387035369873,-21.487586975097656],"type":"VEC3"},{"bufferView":2,"byteOffset":14508,"componentType":5126,"count":1209,"max":[0.9991880655288696,0.9901825189590454,0.9999828338623047],"min":[-0.9991880059242249,-0.9971848726272583,-0.9999922513961792],"type":"VEC3"},{"bufferView":1,"componentType":5126,"count":1209,"max":[2.2740626335144043,2.918178081512451],"min":[-1.9182024002075195,-0.07410573959350586],"type":"VEC2"},{"bufferView":1,"byteOffset":9672,"componentType":5126,"count":1209,"max":[-4.1481087202353107e+37,-4.452361090217769e+37],"min":[-3.035853626602323e+38,-3.035853626602323e+38],"type":"VEC2"},{"bufferView":0,"componentType":5125,"count":4758,"type":"SCALAR"},{"bufferView":2,"byteOffset":29016,"componentType":5126,"count":2617,"max":[29.193952560424805,19.75888442993164,23.75146484375],"min":[-26.411407470703125,-14.722602844238281,-20.20980453491211],"type":"VEC3"},{"bufferView":2,"byteOffset":60420,"componentType":5126,"count":2617,"max":[0.9961441159248352,0.9998478293418884,0.9996927976608276],"min":[-0.9965795278549194,-0.9970734715461731,-0.9999897480010986],"type":"VEC3"},{"bufferView":1,"byteOffset":19344,"componentType":5126,"count":2617,"max":[3.707487106323242,3.6982083320617676],"min":[-2.7076542377471924,-1.0288701057434082],"type":"VEC2"},{"bufferView":1,"byteOffset":40280,"componentType":5126,"count":2617,"max":[-9.58991065462994e+37,-9.61607699125961e+37],"min":[-3.236574639587037e+38,-3.268267527185511e+38],"type":"VEC2"},{"bufferView":0,"byteOffset":19032,"componentType":5125,"count":11064,"type":"SCALAR"},{"bufferView":2,"byteOffset":91824,"componentType":5126,"count":1080,"max":[14.383076667785645,3.8924806118011475,17.459716796875],"min":[-18.755542755126953,-16.546838760375977,-28.431499481201172],"type":"VEC3"},{"bufferView":2,"byteOffset":104784,"componentType":5126,"count":1080,"max":[0.999999463558197,0.9780793786048889,0.9514420628547668],"min":[-0.999999463558197,-0.9902207851409912,-0.9999884963035583],"type":"VEC3"},{"bufferView":1,"byteOffset":61216,"componentType":5126,"count":1080,"max":[2.2604470252990723,1.9725258350372314],"min":[-1.26044762134552,-1.5344257354736328],"type":"VEC2"},{"bufferView":1,"byteOffset":69856,"componentType":5126,"count":1080,"max":[-3.1609562389219825e+37,-3.1609562389219825e+37],"min":[-3.035853626602323e+38,-3.035853626602323e+38],"type":"VEC2"},{"bufferView":0,"byteOffset":63288,"componentType":5125,"count":4806,"type":"SCALAR"},{"bufferView":2,"byteOffset":117744,"componentType":5126,"count":427,"max":[2.9699554443359375,17.177095413208008,15.325152397155762],"min":[-11.066474914550781,-17.826122283935547,-3.6212034225463867],"type":"VEC3"},{"bufferView":2,"byteOffset":122868,"componentType":5126,"count":427,"max":[0.9467764496803284,0.9993101954460144,0.9999904632568359],"min":[-0.9774289727210999,-0.9955114722251892,-0.9353220462799072],"type":"VEC3"},{"bufferView":1,"byteOffset":78496,"componentType":5126,"count":427,"max":[0.9587255716323853,3.1989023685455322],"min":[-0.2337125539779663,-0.16903957724571228],"type":"VEC2"},{"bufferView":1,"byteOffset":81912,"componentType":5126,"count":427,"max":[0.7950245141983032,0.9384431838989258],"min":[-3.0928437495789515e+38,-3.2267747877388406e+38],"type":"VEC2"},{"bufferView":0,"byteOffset":82512,"componentType":5125,"count":2316,"type":"SCALAR"},{"bufferView":2,"byteOffset":127992,"componentType":5126,"count":105,"max":[17.230966567993164,10.900915145874023,1.019053339958191],"min":[-16.93372344970703,-17.951772689819336,-16.207380294799805],"type":"VEC3"},{"bufferView":2,"byteOffset":129252,"componentType":5126,"count":105,"max":[0.9390264749526978,0.8743350505828857,0.1036759540438652],"min":[-0.9740603566169739,-0.9993830919265747,-0.5905707478523254],"type":"VEC3"},{"bufferView":1,"byteOffset":85328,"componentType":5126,"count":105,"max":[0.5958045721054077,0.6137885451316833],"min":[0.41134971380233765,0.4443691074848175],"type":"VEC2"},{"bufferView":1,"byteOffset":86168,"componentType":5126,"count":105,"max":[-3.477885875497083e+37,-3.477885875497083e+37],"min":[-3.035853626602323e+38,-3.035853626602323e+38],"type":"VEC2"},{"bufferView":0,"byteOffset":91776,"componentType":5125,"count":396,"type":"SCALAR"},{"bufferView":2,"byteOffset":130512,"componentType":5126,"count":25,"max":[14.729785919189453,-10.151103019714355,13.576601028442383],"min":[0.26156771183013916,-17.66268539428711,0.6668080687522888],"type":"VEC3"},{"bufferView":2,"byteOffset":130812,"componentType":5126,"count":25,"max":[0.5447731614112854,-0.5218144059181213,0.7557167410850525],"min":[0.08113281428813934,-0.992565393447876,0.07594004273414612],"type":"VEC3"},{"bufferView":1,"byteOffset":87008,"componentType":5126,"count":25,"max":[0.842014491558075,0.9112797975540161],"min":[0.3293290138244629,0.39859431982040405],"type":"VEC2"},{"bufferView":1,"byteOffset":87208,"componentType":5126,"count":25,"max":[-3.3194211839745927e+37,-3.3131660888528266e+37],"min":[-3.0096584889510147e+38,-3.0100292513985694e+38],"type":"VEC2"},{"bufferView":0,"byteOffset":93360,"componentType":5125,"count":96,"type":"SCALAR"},{"bufferView":2,"byteOffset":131112,"componentType":5126,"count":321,"max":[19.0349178314209,19.0349178314209,8.743453979492188],"min":[-19.034915924072266,-19.03491973876953,0],"type":"VEC3"},{"bufferView":2,"byteOffset":134964,"componentType":5126,"count":321,"max":[1,1,1],"min":[-1,-1,-1],"type":"VEC3"},{"bufferView":1,"byteOffset":87408,"componentType":5126,"count":321,"max":[0.875,1.0000001192092896],"min":[-0.125,0],"type":"VEC2"},{"bufferView":0,"byteOffset":93744,"componentType":5125,"count":1728,"type":"SCALAR"}],"asset":{"extras":{"author":"adriaperez (https://sketchfab.com/adriaperez)","license":"CC-BY-4.0 (http://creativecommons.org/licenses/by/4.0/)","source":"https://sketchfab.com/3d-models/gengar-adria-perez-sant-marc-8da3265b00084d7b891ce2461e1f76ba","title":"Gengar Adrià Pérez (Sant Marc)"},"generator":"Sketchfab-12.67.0","version":"2.0"},"bufferViews":[{"buffer":0,"byteLength":100656,"name":"floatBufferViews","target":34963},{"buffer":0,"byteLength":89976,"byteOffset":100656,"byteStride":8,"name":"floatBufferViews","target":34962},{"buffer":0,"byteLength":138816,"byteOffset":190632,"byteStride":12,"name":"floatBufferViews","target":34962}],"buffers":[{"byteLength":329448,"uri":"data:application/octet-stream;base64,"}],"images":[{"uri":"data:application/octet-stream;base64,"},{"uri":"data:application/octet-stream;base64,"},{"uri":"data:application/octet-stream;base64,"},{"uri":"data:application/octet-stream;base64,"}],"materials":[{"doubleSided":true,"name":"Material_133","pbrMetallicRoughness":{"baseColorTexture":{"index":0},"metallicFactor":0,"roughnessFactor":0.6}},{"doubleSided":true,"name":"Material_108","pbrMetallicRoughness":{"baseColorTexture":{"index":0},"metallicFactor":0,"roughnessFactor":0.6}},{"doubleSided":true,"name":"Material_85","pbrMetallicRoughness":{"baseColorTexture":{"index":0},"metallicFactor":0,"roughnessFactor":0.6}},{"doubleSided":true,"name":"Material_73","pbrMetallicRoughness":{"baseColorTexture":{"index":1},"metallicFactor":0,"roughnessFactor":0.6}},{"doubleSided":true,"name":"Material_770","pbrMetallicRoughness":{"baseColorTexture":{"index":2},"metallicFactor":0,"roughnessFactor":0.6}},{"doubleSided":true,"name":"Material_348","pbrMetallicRoughness":{"baseColorTexture":{"index":3},"metallicFactor":0,"roughnessFactor":0.6}},{"alphaMode":"BLEND","doubleSided":true,"name":"Material_837","pbrMetallicRoughness":{"baseColorFactor":[0.1935907381,0.1073096542,0.0024517276,0.5643125057],"roughnessFactor":0.6}}],"meshes":[{"name":"Sphere001_Material #133_0","primitives":[{"attributes":{"NORMAL":1,"POSITION":0,"TEXCOORD_0":2,"TEXCOORD_1":3},"indices":4,"material":0,"mode":4}]},{"name":"Sphere001_Material #108_0","primitives":[{"attributes":{"NORMAL":6,"POSITION":5,"TEXCOORD_0":7,"TEXCOORD_1":8},"indices":9,"material":1,"mode":4}]},{"name":"Sphere001_Material #85_0","primitives":[{"attributes":{"NORMAL":11,"POSITION":10,"TEXCOORD_0":12,"TEXCOORD_1":13},"indices":14,"material":2,"mode":4}]},{"name":"Sphere001_Material #73_0","primitives":[{"attributes":{"NORMAL":16,"POSITION":15,"TEXCOORD_0":17,"TEXCOORD_1":18},"indices":19,"material":3,"mode":4}]},{"name":"Sphere001_Material #770_0","primitives":[{"attributes":{"NORMAL":21,"POSITION":20,"TEXCOORD_0":22,"TEXCOORD_1":23},"indices":24,"material":4,"mode":4}]},{"name":"Sphere001_Material #348_0","primitives":[{"attributes":{"NORMAL":26,"POSITION":25,"TEXCOORD_0":27,"TEXCOORD_1":28},"indices":29,"material":5,"mode":4}]},{"name":"Cylinder001_Material #837_0","primitives":[{"attributes":{"NORMAL":31,"POSITION":30,"TEXCOORD_0":32},"indices":33,"material":6,"mode":4}]}],"nodes":[{"children":[1],"matrix":[1,0,0,0,0,2.220446049250313e-16,-1,0,0,1,2.220446049250313e-16,0,0,0,0,1],"name":"Sketchfab_model"},{"children":[2],"matrix":[1,0,0,0,0,0,1,0,0,-1,0,0,0,0,0,1],"name":"GengarFBX.FBX"},{"children":[3,11],"name":"RootNode"},{"children":[4],"matrix":[1,0,0,0,0,2.220446049250313e-16,-1,0,0,1,2.220446049250313e-16,0,-2.1653571128845215,-2.599595546722412,4.151915073394775,1],"name":"Sphere001"},{"children":[5,6,7,8,9,10],"matrix":[1,0,0,0,0,1,0,0,0,0,1,0,-0.12311649322509766,3.916013479232788,28.372175216674805,1],"name":"Object_4"},{"mesh":0,"name":"Sphere001_Material #133_0"},{"mesh":1,"name":"Sphere001_Material #108_0"},{"mesh":2,"name":"Sphere001_Material #85_0"},{"mesh":3,"name":"Sphere001_Material #73_0"},{"mesh":4,"name":"Sphere001_Material #770_0"},{"mesh":5,"name":"Sphere001_Material #348_0"},{"children":[12],"matrix":[1.51277494430542,0,0,0,0,3.359035148487832e-16,-1.51277494430542,0,0,1.51277494430542,3.359035148487832e-16,0,-2.060945987701416,-15.188446998596191,5.02011775970459,1],"name":"Cylinder001"},{"mesh":6,"name":"Cylinder001_Material #837_0"}],"samplers":[{"magFilter":9729,"minFilter":9987,"wrapS":10497,"wrapT":10497}],"scene":0,"scenes":[{"name":"Sketchfab_Scene","nodes":[0]}],"textures":[{"sampler":0,"source":0},{"sampler":0,"source":1},{"sampler":0,"source":2},{"sampler":0,"source":3}]}